<?xml version="1.0" encoding="utf-8"?>
<!-- Generator: Adobe Illustrator 23.1.1, SVG Export Plug-In . SVG Version: 6.00 Build 0)  -->
<svg version="1.1" xmlns="http://www.w3.org/2000/svg" xmlns:xlink="http://www.w3.org/1999/xlink" x="0px" y="0px"
	 viewBox="0 0 432 432" style="enable-background:new 0 0 432 432;" xml:space="preserve">
<style type="text/css">
	.st0{fill:#4F2683;}
	.st1{opacity:0.63;fill:url(#SVGID_1_);}
	.st2{fill:#D1D3D4;}
	.st3{fill:#BCBEC0;}
	.st4{fill:url(#SVGID_2_);}
	.st5{fill:url(#SVGID_3_);}
	.st6{fill:url(#SVGID_4_);}
	.st7{fill:#E6E7E8;}
	.st8{fill:#00AEEF;}
	.st9{fill:#58595B;}
	.st10{fill:#DCDDDE;}
	.st11{fill:url(#SVGID_5_);}
	.st12{fill:url(#SVGID_6_);}
	.st13{fill:url(#SVGID_7_);}
	.st14{fill:url(#SVGID_8_);}
	.st15{fill:url(#SVGID_9_);}
	.st16{fill:url(#SVGID_10_);}
	.st17{fill:url(#SVGID_11_);}
	.st18{fill:#262626;}
	.st19{fill:url(#SVGID_12_);}
	.st20{fill:url(#SVGID_13_);}
	.st21{fill:url(#SVGID_14_);}
	.st22{fill:#FFFFFF;}
	.st23{fill:url(#SVGID_15_);}
	.st24{fill:#ED2224;}
	.st25{fill:url(#SVGID_16_);}
	.st26{fill:url(#SVGID_17_);}
	.st27{fill:url(#SVGID_18_);}
</style>
<g id="Background">
	<g>
		<rect class="st0" width="432" height="432"/>
	</g>
</g>
<g id="Shadow">
	<linearGradient id="SVGID_1_" gradientUnits="userSpaceOnUse" x1="289.6979" y1="262.6845" x2="432" y2="262.6845">
		<stop  offset="0.1436" style="stop-color:#000000"/>
		<stop  offset="0.9947" style="stop-color:#000000;stop-opacity:0"/>
	</linearGradient>
	<polygon class="st1" points="432,432 432,221.4 289.7,93.4 289.7,432 	"/>
</g>
<g id="Tower">
	<g>
		<g>
			<rect x="138.9" y="136.6" class="st2" width="29.4" height="295.4"/>
			<rect x="168.3" y="159" class="st3" width="27.1" height="273"/>
			<rect x="222.5" y="159" class="st3" width="27.1" height="273"/>
			<rect x="264.1" y="100.2" class="st2" width="14.5" height="331.8"/>
			<polygon class="st3" points="264.1,432 249.6,432 249.6,104 264.1,100.2 			"/>
			<polygon class="st3" points="278.7,432 293.2,432 293.2,104 278.7,100.2 			"/>
			<rect x="195.4" y="176.4" class="st3" width="27.1" height="255.6"/>
			<linearGradient id="SVGID_2_" gradientUnits="userSpaceOnUse" x1="168.3008" y1="295.4828" x2="195.3903" y2="295.4828">
				<stop  offset="0" style="stop-color:#CCCCCC"/>
				<stop  offset="5.723006e-02" style="stop-color:#D8D8D8;stop-opacity:0.8686"/>
				<stop  offset="0.19" style="stop-color:#EDEDED;stop-opacity:0.564"/>
				<stop  offset="0.3181" style="stop-color:#FBFBFB;stop-opacity:0.2698"/>
				<stop  offset="0.4357" style="stop-color:#FFFFFF;stop-opacity:0"/>
			</linearGradient>
			<rect x="168.3" y="159" class="st4" width="27.1" height="273"/>
			<linearGradient id="SVGID_3_" gradientUnits="userSpaceOnUse" x1="168.3008" y1="295.4828" x2="188.5465" y2="295.4828">
				<stop  offset="0" style="stop-color:#4A4A4A"/>
				<stop  offset="0.4881" style="stop-color:#B5B5B5;stop-opacity:0.42"/>
				<stop  offset="0.8416" style="stop-color:#FFFFFF;stop-opacity:0"/>
			</linearGradient>
			<rect x="168.3" y="159" class="st5" width="20.2" height="273"/>
			
				<linearGradient id="SVGID_4_" gradientUnits="userSpaceOnUse" x1="20.3884" y1="295.4828" x2="39.7392" y2="295.4828" gradientTransform="matrix(-1 0 0 1 269.9577 0)">
				<stop  offset="0" style="stop-color:#4A4A4A"/>
				<stop  offset="0.4881" style="stop-color:#B5B5B5;stop-opacity:0.42"/>
				<stop  offset="0.8416" style="stop-color:#FFFFFF;stop-opacity:0"/>
			</linearGradient>
			<polygon class="st6" points="230.2,432 249.6,432 249.6,159 230.2,159 			"/>
			<path class="st7" d="M230.2,237.1c0,0-19.1,4.6-20.5,19.5V333h20.5h20.5v-76.4C249.3,241.7,230.2,237.1,230.2,237.1z"/>
			<path class="st7" d="M188.5,237.1c0,0-19.1,4.6-20.5,19.5V333h20.5H209v-76.4C207.6,241.7,188.5,237.1,188.5,237.1z"/>
			<path class="st8" d="M188.7,248.1c0,0-12.3,2.6-14.1,16.1v61.7h14.1h14.1v-61.7C200.9,250.7,188.7,248.1,188.7,248.1z"/>
			<path class="st8" d="M230.2,248.1c0,0-12.3,2.6-14.1,16.1v61.7h14.1h14.1v-61.7C242.5,250.7,230.2,248.1,230.2,248.1z"/>
			<path class="st9" d="M216.6,325.9l0-51.5c0.8-6.7,5.5-8.6,6.5-8.9c1.1,0.4,5.7,2.2,6.5,8.8v51.6v0h1.9v0h0v-51.6
				c0.8-6.7,5.4-8.6,6.5-8.9c1.1,0.4,5.7,2.2,6.5,8.8v51.6h1.9l0-51.7c-0.9-7.2-5.6-9.7-7.5-10.4v-13.3h-1.9v13.3
				c-1.2,0.5-3.8,1.8-5.6,4.8v-20.5h-1.9v20.4c-1.8-3-4.4-4.3-5.6-4.7v-13.3h-1.9v13.3c-1.8,0.7-6.6,3.2-7.5,10.5v51.6H216.6z"/>
			<path class="st9" d="M175,325.9l0-51.5c0.8-6.7,5.5-8.6,6.5-8.9c1.1,0.4,5.7,2.2,6.5,8.8v51.6v0h1.9v0h0v-51.6
				c0.8-6.7,5.4-8.6,6.5-8.9c1.1,0.4,5.7,2.2,6.5,8.8v51.6h1.9l0-51.7c-0.9-7.2-5.6-9.7-7.5-10.4v-13.3h-1.9v13.3
				c-1.2,0.5-3.8,1.8-5.6,4.8v-20.5h-1.9v20.4c-1.8-3-4.4-4.3-5.6-4.7v-13.3h-1.9v13.3c-1.8,0.7-6.6,3.2-7.5,10.5v51.6H175z"/>
			<path class="st10" d="M174,325.9l0-52.1c0.8-6.7,5.5-8.6,6.5-8.9c1.1,0.4,5.7,2.2,6.5,8.8v51.6v0.6h1.9l0-0.6h0v-51.6
				c0.8-6.7,5.4-8.6,6.5-8.9c1.1,0.4,5.7,2.2,6.5,8.8v52.2h1.9l0-52.3c-0.9-7.2-5.6-9.7-7.5-10.4v-13.3h-1.9v13.3
				c-1.2,0.5-3.8,1.8-5.6,4.8v-20.5h-1.9V268c-1.8-3-4.4-4.3-5.6-4.7v-13.3h-1.9v13.3c-1.8,0.7-6.6,3.2-7.5,10.5v52.2H174z"/>
			<path class="st10" d="M215.6,325.9l0-52.1c0.8-6.7,5.5-8.6,6.5-8.9c1.1,0.4,5.7,2.2,6.5,8.8v51.6v0.6h1.9l0-0.6h0v-51.6
				c0.8-6.7,5.4-8.6,6.5-8.9c1.1,0.4,5.7,2.2,6.5,8.8v52.2h1.9l0-52.3c-0.9-7.2-5.6-9.7-7.5-10.4v-13.3h-1.9v13.3
				c-1.2,0.5-3.8,1.8-5.6,4.8v-20.5h-1.9V268c-1.8-3-4.4-4.3-5.6-4.7v-13.3h-1.9v13.3c-1.8,0.7-6.6,3.2-7.5,10.5v52.2H215.6z"/>
			<path class="st2" d="M230.2,244.6v3.5c0,0,12.2,2.6,14.1,16c0,0,0,0,0,0v0.1v61.7l2.8,4.1v-65.8
				C244.8,248,230.2,244.6,230.2,244.6z"/>
			<path class="st9" d="M216.1,264.1C216.1,264.1,216.1,264.1,216.1,264.1c1.9-13.4,14.1-16,14.1-16v-3.5c0,0-14.6,3.4-17,19.5V330
				l2.8-4.1V264.1L216.1,264.1z"/>
			<path class="st2" d="M188.7,244.6v3.5c0,0,12.2,2.6,14.1,16c0,0,0,0,0,0v0.1v61.7l2.8,4.1v-65.8
				C203.2,248,188.7,244.6,188.7,244.6z"/>
			<path class="st9" d="M174.5,264.1C174.5,264.1,174.6,264.1,174.5,264.1c1.9-13.4,14.1-16,14.1-16v-3.5c0,0-14.6,3.4-17,19.5V330
				l2.8-4.1V264.1L174.5,264.1z"/>
			<linearGradient id="SVGID_5_" gradientUnits="userSpaceOnUse" x1="191.6218" y1="285.3887" x2="212.4751" y2="285.3887">
				<stop  offset="0" style="stop-color:#595959"/>
				<stop  offset="8.190942e-02" style="stop-color:#6C6C6C;stop-opacity:0.9181"/>
				<stop  offset="0.2758" style="stop-color:#939393;stop-opacity:0.7242"/>
				<stop  offset="0.4678" style="stop-color:#B1B1B1;stop-opacity:0.5322"/>
				<stop  offset="0.6549" style="stop-color:#C7C7C7;stop-opacity:0.3451"/>
				<stop  offset="0.835" style="stop-color:#D4D4D4;stop-opacity:0.165"/>
				<stop  offset="1" style="stop-color:#D9D9D9;stop-opacity:0"/>
			</linearGradient>
			<path class="st11" d="M188.5,237.1l0.1,7.6c0,0,16.3,4.5,17,20.9c0.6,14.7,0.5,68.2,0.5,68.2h3l-1.5-82.6
				C207.6,251.1,204.1,241.3,188.5,237.1z"/>
			<linearGradient id="SVGID_6_" gradientUnits="userSpaceOnUse" x1="233.2937" y1="285.3887" x2="254.147" y2="285.3887">
				<stop  offset="0" style="stop-color:#595959"/>
				<stop  offset="8.190942e-02" style="stop-color:#6C6C6C;stop-opacity:0.9181"/>
				<stop  offset="0.2758" style="stop-color:#939393;stop-opacity:0.7242"/>
				<stop  offset="0.4678" style="stop-color:#B1B1B1;stop-opacity:0.5322"/>
				<stop  offset="0.6549" style="stop-color:#C7C7C7;stop-opacity:0.3451"/>
				<stop  offset="0.835" style="stop-color:#D4D4D4;stop-opacity:0.165"/>
				<stop  offset="1" style="stop-color:#D9D9D9;stop-opacity:0"/>
			</linearGradient>
			<path class="st12" d="M230.2,237.1l0.1,7.6c0,0,16.3,4.5,17,20.9c0.6,14.7,0.5,68.2,0.5,68.2h3l-1.5-82.6
				C249.3,251.1,245.8,241.3,230.2,237.1z"/>
			<linearGradient id="SVGID_7_" gradientUnits="userSpaceOnUse" x1="263.8215" y1="266.1112" x2="293.2592" y2="266.1112">
				<stop  offset="0" style="stop-color:#F2F2F2"/>
				<stop  offset="0.167" style="stop-color:#FBFBFB;stop-opacity:0.5675"/>
				<stop  offset="0.3862" style="stop-color:#FFFFFF;stop-opacity:0"/>
			</linearGradient>
			<rect x="263.8" y="100.2" class="st13" width="29.4" height="331.8"/>
			<rect x="173.4" y="163.6" class="st7" width="16.5" height="47.3"/>
			<g>
				<polygon class="st9" points="176.7,207.4 178.4,207.4 178.4,169.1 176.7,167.2 				"/>
				<polygon points="178.4,169.1 176.7,167.2 186.5,167.2 186.5,169.1 				"/>
			</g>
			<linearGradient id="SVGID_8_" gradientUnits="userSpaceOnUse" x1="178.4455" y1="188.253" x2="186.4845" y2="188.253">
				<stop  offset="0" style="stop-color:#CCCCCC"/>
				<stop  offset="5.723006e-02" style="stop-color:#D8D8D8;stop-opacity:0.8686"/>
				<stop  offset="0.19" style="stop-color:#EDEDED;stop-opacity:0.564"/>
				<stop  offset="0.3181" style="stop-color:#FBFBFB;stop-opacity:0.2698"/>
				<stop  offset="0.4357" style="stop-color:#FFFFFF;stop-opacity:0"/>
			</linearGradient>
			<rect x="178.4" y="169.1" class="st14" width="8" height="38.2"/>
			<rect x="227.8" y="163.6" class="st7" width="16.5" height="47.3"/>
			<g>
				<polygon class="st9" points="231.2,207.4 232.9,207.4 232.9,169.1 231.2,167.2 				"/>
				<polygon points="232.9,169.1 231.2,167.2 240.9,167.2 240.9,169.1 				"/>
			</g>
			<linearGradient id="SVGID_9_" gradientUnits="userSpaceOnUse" x1="232.8574" y1="188.253" x2="240.8964" y2="188.253">
				<stop  offset="0" style="stop-color:#CCCCCC"/>
				<stop  offset="5.723006e-02" style="stop-color:#D8D8D8;stop-opacity:0.8686"/>
				<stop  offset="0.19" style="stop-color:#EDEDED;stop-opacity:0.564"/>
				<stop  offset="0.3181" style="stop-color:#FBFBFB;stop-opacity:0.2698"/>
				<stop  offset="0.4357" style="stop-color:#FFFFFF;stop-opacity:0"/>
			</linearGradient>
			<rect x="232.9" y="169.1" class="st15" width="8" height="38.2"/>
			
				<linearGradient id="SVGID_10_" gradientUnits="userSpaceOnUse" x1="-28.2734" y1="122.0649" x2="-20.2344" y2="122.0649" gradientTransform="matrix(-1 0 0 -1 212.623 310.3179)">
				<stop  offset="6.930693e-02" style="stop-color:#8C8C8C"/>
				<stop  offset="0.1767" style="stop-color:#A3A3A3"/>
				<stop  offset="0.3452" style="stop-color:#C1C1C1"/>
				<stop  offset="0.4406" style="stop-color:#CCCCCC"/>
			</linearGradient>
			<polygon class="st16" points="232.9,169.1 240.9,169.1 240.9,207.4 232.9,207.4 			"/>
			
				<linearGradient id="SVGID_11_" gradientUnits="userSpaceOnUse" x1="26.1385" y1="122.0649" x2="34.1775" y2="122.0649" gradientTransform="matrix(-1 0 0 -1 212.623 310.3179)">
				<stop  offset="6.930693e-02" style="stop-color:#8C8C8C"/>
				<stop  offset="0.1767" style="stop-color:#A3A3A3"/>
				<stop  offset="0.3452" style="stop-color:#C1C1C1"/>
				<stop  offset="0.4406" style="stop-color:#CCCCCC"/>
			</linearGradient>
			<polygon class="st17" points="178.4,169.1 186.5,169.1 186.5,207.4 178.4,207.4 			"/>
			<rect x="137.8" y="131.9" class="st18" width="31.3" height="4.7"/>
			<rect x="137.8" y="126" class="st7" width="31.3" height="5.9"/>
			<rect x="168.3" y="154.3" class="st18" width="27.1" height="4.7"/>
			<rect x="168.3" y="148.3" class="st10" width="27.1" height="5.9"/>
			<g>
				<rect x="168.3" y="218" class="st9" width="81.3" height="2.6"/>
				<rect x="168.3" y="214.8" class="st7" width="81.3" height="3.3"/>
			</g>
			<g>
				<rect x="168.3" y="336.2" class="st9" width="81.3" height="2.6"/>
				<rect x="168.3" y="333" class="st7" width="81.3" height="3.3"/>
			</g>
			<g>
				<rect x="264.1" y="215.1" class="st9" width="14.5" height="2.6"/>
				<rect x="264.1" y="211.8" class="st7" width="14.5" height="3.3"/>
			</g>
			<g>
				<polygon class="st9" points="264.1,217.7 249.6,220.7 249.6,218 264.1,215.1 				"/>
				<polygon class="st7" points="264.1,215.1 249.6,218 249.6,214.8 264.1,211.8 				"/>
			</g>
			<g>
				<polygon class="st9" points="278.7,217.7 293.2,220.7 293.2,218 278.7,215.1 				"/>
				<polygon class="st7" points="278.7,215.1 293.2,218 293.2,214.8 278.7,211.8 				"/>
			</g>
			<rect x="195.4" y="171.7" class="st18" width="27.1" height="4.7"/>
			<rect x="195.4" y="165.8" class="st10" width="27.1" height="5.9"/>
			<rect x="222.5" y="154.3" class="st18" width="27.1" height="4.7"/>
			<rect x="222.5" y="148.3" class="st10" width="27.1" height="5.9"/>
			<rect x="264.1" y="95.5" class="st9" width="14.5" height="4.7"/>
			<polygon class="st9" points="264.1,100.2 249.6,104 249.6,99.3 264.1,95.5 			"/>
			<polygon class="st10" points="264.1,95.5 249.6,99.3 249.6,93.4 264.1,89.6 			"/>
			<linearGradient id="SVGID_12_" gradientUnits="userSpaceOnUse" x1="249.5694" y1="94.4444" x2="264.1122" y2="94.4444">
				<stop  offset="0.1534" style="stop-color:#FFFFFF;stop-opacity:0"/>
				<stop  offset="0.6339" style="stop-color:#FBFBFB;stop-opacity:0.5675"/>
				<stop  offset="1" style="stop-color:#F2F2F2"/>
			</linearGradient>
			<polygon class="st19" points="264.1,95.5 249.6,99.3 249.6,93.4 264.1,89.6 			"/>
			<linearGradient id="SVGID_13_" gradientUnits="userSpaceOnUse" x1="249.5694" y1="94.4444" x2="264.1122" y2="94.4444">
				<stop  offset="0.1534" style="stop-color:#FFFFFF;stop-opacity:0"/>
				<stop  offset="0.6339" style="stop-color:#FBFBFB;stop-opacity:0.5675"/>
				<stop  offset="1" style="stop-color:#F2F2F2"/>
			</linearGradient>
			<polygon class="st20" points="264.1,95.5 249.6,99.3 249.6,93.4 264.1,89.6 			"/>
			<polygon class="st9" points="278.7,100.2 293.2,104 293.2,99.3 278.7,95.5 			"/>
			<polygon class="st10" points="278.7,95.5 293.2,99.3 293.2,93.4 278.7,89.6 			"/>
			<linearGradient id="SVGID_14_" gradientUnits="userSpaceOnUse" x1="278.655" y1="94.4444" x2="293.1978" y2="94.4444">
				<stop  offset="0" style="stop-color:#F2F2F2;stop-opacity:0"/>
				<stop  offset="8.877391e-02" style="stop-color:#DADADA;stop-opacity:8.877391e-02"/>
				<stop  offset="0.207" style="stop-color:#C0C0C0;stop-opacity:0.207"/>
				<stop  offset="0.3388" style="stop-color:#ACACAC;stop-opacity:0.3388"/>
				<stop  offset="0.4893" style="stop-color:#9E9E9E;stop-opacity:0.4893"/>
				<stop  offset="0.6749" style="stop-color:#969696;stop-opacity:0.6749"/>
				<stop  offset="1" style="stop-color:#949494"/>
			</linearGradient>
			<polygon class="st21" points="278.7,95.5 293.2,99.3 293.2,93.4 278.7,89.6 			"/>
			<g>
				<rect x="137.8" y="130.4" class="st22" width="31.3" height="1.5"/>
			</g>
			<g>
				<rect x="168.3" y="152.8" class="st22" width="27.1" height="1.5"/>
			</g>
			<g>
				<rect x="222.5" y="152.8" class="st22" width="27.1" height="1.5"/>
			</g>
			<g>
				<rect x="263.8" y="95.5" class="st22" width="14.8" height="1.5"/>
				
					<rect x="268.9" y="91.9" transform="matrix(-1.836970e-16 1 -1 -1.836970e-16 370.567 -171.9096)" class="st18" width="4.7" height="14.8"/>
			</g>
			<g>
				<polygon class="st22" points="263.8,97 249.6,100.6 249.6,99.1 263.8,95.5 				"/>
				<polygon class="st18" points="249.6,105.3 249.6,100.6 263.8,97 263.8,101.7 				"/>
			</g>
			<g>
				<polygon class="st22" points="278.7,97 293.2,100.7 293.2,99.2 278.7,95.5 				"/>
				<polygon class="st18" points="293.2,105.4 293.2,100.7 278.7,97 278.7,101.7 				"/>
			</g>
			<g>
				<rect x="195.4" y="170.3" class="st22" width="27.1" height="1.5"/>
			</g>
			<polygon class="st10" points="275.1,89.6 275.1,93.6 267.3,93.6 267.3,89.6 264.1,89.6 264.1,95.5 278.7,95.5 278.7,89.6 			"/>
			<polygon class="st9" points="275.1,89.6 274,90.5 274,93.6 275.1,93.6 			"/>
			<g>
				<path class="st3" d="M266.2,221.9v29.6h11.4v-29.6H266.2z M268.8,223.8h6.3v25.8h-6.3V223.8z"/>
				
					<rect x="269.7" y="225.2" transform="matrix(-1 -4.547175e-11 4.547175e-11 -1 543.7344 472.9245)" class="st22" width="4.4" height="22.5"/>
				<g>
					<rect x="270.3" y="226.7" transform="matrix(-1 -4.526036e-11 4.526036e-11 -1 543.7344 459.3357)" width="3.2" height="5.8"/>
					<rect x="270.3" y="240.3" transform="matrix(-1 -4.468749e-11 4.468749e-11 -1 543.7344 486.5134)" width="3.2" height="5.8"/>
					<rect x="270.3" y="233.5" transform="matrix(-1 -4.526036e-11 4.526036e-11 -1 543.7344 472.9245)" width="3.2" height="5.8"/>
				</g>
				<polygon class="st9" points="269.7,225.5 268.8,223.8 275.1,223.8 274,225.5 				"/>
				<polygon class="st9" points="269.7,225.5 268.8,223.8 268.8,249.6 269.7,248 				"/>
				<polygon class="st2" points="274,225.5 275.1,223.8 275.1,249.6 274,248 				"/>
				<polygon class="st10" points="269.7,248 274,248 275.1,249.6 268.8,249.6 				"/>
			</g>
			<g>
				<path class="st3" d="M266.2,388.8v29.6h11.4v-29.6H266.2z M268.8,390.7h6.3v25.8h-6.3V390.7z"/>
				
					<rect x="269.7" y="392.1" transform="matrix(-1 -4.505475e-11 4.505475e-11 -1 543.7344 806.6788)" class="st22" width="4.4" height="22.5"/>
				<g>
					<rect x="270.3" y="393.6" transform="matrix(-1 -4.468749e-11 4.468749e-11 -1 543.7344 793.09)" width="3.2" height="5.8"/>
					<rect x="270.3" y="407.2" transform="matrix(-1 -4.468749e-11 4.468749e-11 -1 543.7344 820.2677)" width="3.2" height="5.8"/>
					<rect x="270.3" y="400.4" transform="matrix(-1 -4.526036e-11 4.526036e-11 -1 543.7344 806.6788)" width="3.2" height="5.8"/>
				</g>
				<polygon class="st9" points="269.7,392.4 268.8,390.7 275.1,390.7 274,392.4 				"/>
				<polygon class="st9" points="269.7,392.4 268.8,390.7 268.8,416.5 269.7,414.9 				"/>
				<polygon class="st2" points="274,392.4 275.1,390.7 275.1,416.5 274,414.9 				"/>
				<polygon class="st10" points="269.7,414.9 274,414.9 275.1,416.5 268.8,416.5 				"/>
			</g>
			<g>
				<path class="st3" d="M199.7,354.9v48.4h18.7v-48.4H199.7z M203.9,358.1h10.2v42.2h-10.2V358.1z"/>
				
					<rect x="205.4" y="360.3" transform="matrix(-1 -4.469903e-11 4.469903e-11 -1 417.8697 757.3937)" class="st22" width="7.1" height="36.7"/>
				<g>
					<rect x="206.3" y="362.8" transform="matrix(-1 -4.525104e-11 4.525104e-11 -1 417.8697 735.1996)" width="5.2" height="9.5"/>
					<rect x="206.3" y="385" transform="matrix(-1 -4.525104e-11 4.525104e-11 -1 417.8697 779.5878)" width="5.2" height="9.5"/>
					<rect x="206.3" y="373.9" transform="matrix(-1 -4.454937e-11 4.454937e-11 -1 417.8697 757.3937)" width="5.2" height="9.5"/>
				</g>
				<polygon class="st9" points="205.4,360.8 203.9,358.1 214.2,358.1 212.5,360.8 				"/>
				<polygon class="st9" points="205.4,360.8 203.9,358.1 203.9,400.2 205.4,397.6 				"/>
				<polygon class="st2" points="212.5,360.8 214.2,358.1 214.2,400.2 212.5,397.6 				"/>
				<polygon class="st10" points="205.4,397.6 212.5,397.6 214.2,400.2 203.9,400.2 				"/>
			</g>
			
				<linearGradient id="SVGID_15_" gradientUnits="userSpaceOnUse" x1="226.3857" y1="109.5977" x2="229.6766" y2="109.5977" gradientTransform="matrix(0 1 -1 0 318.5328 106.5729)">
				<stop  offset="8.918626e-02" style="stop-color:#636363"/>
				<stop  offset="0.3718" style="stop-color:#909090;stop-opacity:0.6897"/>
				<stop  offset="1" style="stop-color:#FFFFFF;stop-opacity:0"/>
			</linearGradient>
			<polygon class="st23" points="168.3,336.2 168.3,333 249.6,333 249.6,336.2 			"/>
			<g>
				<rect x="209" y="127" class="st2" width="1.5" height="211.8"/>
				<polygon class="st9" points="210.5,338.9 212,338.9 212,128.1 210.5,127 				"/>
				<polygon class="st7" points="209.2,338.9 207.6,338.9 207.6,128.1 209.2,127 				"/>
			</g>
			<rect x="209.2" y="279.8" class="st7" width="1.3" height="1.3"/>
			<g>
				<rect x="209.2" y="281.1" class="st9" width="1.3" height="1.1"/>
				<g>
					<polygon class="st9" points="209.2,282.1 207.6,283 206.9,282.4 209.2,281.1 					"/>
					<polygon class="st7" points="209.2,281.1 206.9,282.4 207.6,280.6 209.2,279.8 					"/>
				</g>
				<g>
					<polygon class="st9" points="210.5,282.1 212,283 212.7,282.4 210.5,281.1 					"/>
					<polygon class="st7" points="210.5,281.1 212.7,282.4 212,280.6 210.5,279.8 					"/>
				</g>
			</g>
			<g>
				<rect x="209.2" y="229.7" class="st9" width="1.3" height="1.1"/>
				<g>
					<polygon class="st9" points="209.2,230.7 207.6,231.6 206.9,231 209.2,229.7 					"/>
					<polygon class="st7" points="209.2,229.7 206.9,231 207.6,229.2 209.2,228.4 					"/>
				</g>
				<g>
					<polygon class="st9" points="210.5,230.7 212,231.6 212.7,231 210.5,229.7 					"/>
					<polygon class="st7" points="210.5,229.7 212.7,231 212,229.2 210.5,228.4 					"/>
				</g>
			</g>
			<g>
				<rect x="209.2" y="177.4" class="st9" width="1.3" height="1.1"/>
				<g>
					<polygon class="st9" points="209.2,178.4 207.6,179.3 206.9,178.7 209.2,177.4 					"/>
					<polygon class="st7" points="209.2,177.4 206.9,178.7 207.6,176.9 209.2,176.1 					"/>
				</g>
				<g>
					<polygon class="st9" points="210.5,178.4 212,179.3 212.7,178.7 210.5,177.4 					"/>
					<polygon class="st7" points="210.5,177.4 212.7,178.7 212,176.9 210.5,176.1 					"/>
				</g>
			</g>
			<g>
				<rect x="209.2" y="126.9" class="st9" width="1.3" height="1.1"/>
				<g>
					<polygon class="st9" points="209.2,128 207.6,128.8 206.9,128.3 209.2,126.9 					"/>
					<polygon class="st7" points="209.2,126.9 206.9,128.3 207.6,126.5 209.2,125.6 					"/>
				</g>
				<g>
					<polygon class="st9" points="210.5,128 212,128.8 212.7,128.3 210.5,126.9 					"/>
					<polygon class="st7" points="210.5,126.9 212.7,128.3 212,126.5 210.5,125.6 					"/>
				</g>
			</g>
			<g>
				<path class="st22" d="M286.2,36.3c0,0,10.9-0.6,28.2-5.4v28.2c0,0-8.9,3.8-28.2,5.4V36.3z"/>
				<g>
					<path class="st24" d="M272.1,61.8c4.7,2.4,9.4,3,14.1,2.7c0-9.4,0-18.8,0-28.2c-4.7,0.3-9.4-0.3-14.1-2.7
						C272.1,43,272.1,52.4,272.1,61.8z"/>
					<path class="st24" d="M314.5,30.9c0,9.4,0,18.8,0,28.2c4.7-0.3,9.4,0.3,14.1,2.7c0-9.4,0-18.8,0-28.2
						C323.9,31.2,319.2,30.6,314.5,30.9z"/>
					<path class="st24" d="M311.4,45.8c-0.4-0.1-0.7-0.2-1.1-0.4c-0.5-0.1-0.3-0.4-0.2-1.1c0.3-1,0.5-2,0.8-3.1
						c-1,0.4-2.1,0.8-3.1,1.2c-0.3,0.1-0.5,0-0.5-0.2c-0.1-0.4-0.3-0.9-0.4-1.3c-0.8,1.1-1.6,2.2-2.4,3.3c-0.3,0.5-1,0.7-0.8-0.4
						c0.3-1.9,0.7-3.8,1-5.8c-0.5,0.4-0.9,0.7-1.4,1.1c-0.4,0.3-0.8,0.4-1,0.1c-0.6-1-1.3-2.1-1.9-3.1c-0.6,1.4-1.3,2.7-1.9,4.1
						c-0.2,0.4-0.6,0.5-1,0.4c-0.5-0.1-0.9-0.3-1.4-0.4c0.3,1.8,0.7,3.5,1,5.3c0.2,1-0.5,1.1-0.8,0.8c-0.8-0.7-1.6-1.4-2.4-2.2
						c-0.1,0.5-0.3,1-0.4,1.5c0,0.2-0.2,0.4-0.5,0.4c-1,0-2.1,0-3.1-0.1c0.3,0.9,0.5,1.9,0.8,2.8c0.2,0.6,0.3,0.9-0.2,1.1
						c-0.4,0.2-0.7,0.5-1.1,0.7c1.8,1.2,3.5,2.3,5.3,3.3c0.2,0.1,0.3,0.4,0.2,0.7c-0.2,0.5-0.3,1.1-0.5,1.6c1.8-0.6,3.5-1.3,5.3-2
						c0.2-0.1,0.4,0.1,0.4,0.3c-0.1,1.9-0.2,3.8-0.2,5.6c0.3-0.1,0.6-0.2,0.9-0.2c0-1.8-0.1-3.7-0.1-5.5c0-0.2,0.2-0.5,0.4-0.6
						c1.8-0.3,3.5-0.4,5.3-0.6c-0.2-0.5-0.3-0.9-0.5-1.4c-0.1-0.2,0-0.6,0.2-0.8C307.8,49.3,309.6,47.5,311.4,45.8z"/>
				</g>
			</g>
			<linearGradient id="SVGID_16_" gradientUnits="userSpaceOnUse" x1="269.32" y1="60.4357" x2="272.1316" y2="60.4357">
				<stop  offset="0.3713" style="stop-color:#F2F2F2"/>
				<stop  offset="0.5015" style="stop-color:#EFEFEF"/>
				<stop  offset="0.6051" style="stop-color:#E5E5E5"/>
				<stop  offset="0.6994" style="stop-color:#D4D4D4"/>
				<stop  offset="0.7882" style="stop-color:#BDBDBD"/>
				<stop  offset="0.8733" style="stop-color:#9E9E9E"/>
				<stop  offset="0.9544" style="stop-color:#797979"/>
				<stop  offset="1" style="stop-color:#616161"/>
			</linearGradient>
			<rect x="269.3" y="27.3" class="st25" width="2.8" height="66.2"/>
			
				<linearGradient id="SVGID_17_" gradientUnits="userSpaceOnUse" x1="224.2488" y1="195.0931" x2="220.2531" y2="195.0931" gradientTransform="matrix(0 -1 1 0 75.6284 251.9295)">
				<stop  offset="0.1535" style="stop-color:#595959"/>
				<stop  offset="0.4102" style="stop-color:#5E5E5E;stop-opacity:0.6949"/>
				<stop  offset="0.995" style="stop-color:#616161;stop-opacity:0"/>
			</linearGradient>
			<polygon class="st26" points="272.1,27.7 272.1,31.7 269.3,31.7 269.3,27.7 			"/>
			<radialGradient id="SVGID_18_" cx="269.5377" cy="24.9698" r="3.2735" gradientUnits="userSpaceOnUse">
				<stop  offset="0.2328" style="stop-color:#F2F2F2"/>
				<stop  offset="0.3788" style="stop-color:#D8D8D8"/>
				<stop  offset="0.6896" style="stop-color:#949494"/>
				<stop  offset="0.9947" style="stop-color:#4D4D4D"/>
			</radialGradient>
			<circle class="st27" cx="270.7" cy="26.2" r="2.8"/>
		</g>
		<rect x="209.2" y="125.6" class="st2" width="1.3" height="1.3"/>
	</g>
</g>
</svg>
